# xmcd
#
# Track frame offsets:
#	150
#	11144
#	22997
#	35249
#	45785
#	56279
#	66703
#	77675
#	89438
#	101298
#	112873
#	124592
#	135022
#	147541
#	158887
#	171547
#	183260
#	193644
#	205990
#	217981
#	229015
#	241215
#	251741
#	265572
#	277799
#
# Disc length: 3886 seconds
#
# Revision: 0
# Processed by: cddbd v1.5.2PL0 Copyright (c) Steve Scherf et al.
# Submitted via: audiograbber 1.83.01
#
DISCID=500f2c19
DTITLE=Texas Bill Strength - When Love Comes Knockin
DYEAR=1900
DGENRE=
TTITLE0=Gotta Gotta Love
TTITLE1=Where Did My Heart Go
TTITLE2=Turn Around
TTITLE3=When Love Comes Knockin
TTITLE4=North Wind
TTITLE5=But Do You Think I'm Happy
TTITLE6=It Ain't Much But It's Home
TTITLE7=When The Bright Lights Grow Dim
TTITLE8=It's A Shame
TTITLE9=I Found My Love And Lost My Heart
TTITLE10=Yellow Rose Of Texas
TTITLE11=Country Love
TTITLE12=Alone
TTITLE13=It Could Be A Wonderful World
TTITLE14=Is Someone Else The Lucky One Tonight
TTITLE15=Cherry Pie
TTITLE16=Let's Make Love Or Go Home
TTITLE17=You Can't Have My Love
TTITLE18=Six Fools
TTITLE19=I Wanna Ride On Your Marry Go Round
TTITLE20=Black Coffee Blues
TTITLE21=Paper Boy Boogie
TTITLE22=Lillie I And Big You
TTITLE23=Who's The Lucky One
TTITLE24=Frown On The Face Of The Moon
EXTD=
EXTT0=
EXTT1=
EXTT2=
EXTT3=
EXTT4=
EXTT5=
EXTT6=
EXTT7=
EXTT8=
EXTT9=
EXTT10=
EXTT11=
EXTT12=
EXTT13=
EXTT14=
EXTT15=
EXTT16=
EXTT17=
EXTT18=
EXTT19=
EXTT20=
EXTT21=
EXTT22=
EXTT23=
EXTT24=
PLAYORDER=
